<svg width="833" height="88" fill="none" xmlns="http://www.w3.org/2000/svg"><path d="M.037 56.982c0-18.927 19.345-30.63 41.436-30.63 19.83 0 31.26 8.112 35.944 20.46V4.358h16.437v81.72H77.417V67.274c-4.725 12.268-16.114 20.46-35.944 20.46C19.382 87.733.037 75.95.037 56.983Zm77.986 0c0-13.236-15.912-18.24-30.29-18.24-14.377 0-30.047 4.882-30.047 18.24 0 13.358 15.71 18.362 30.047 18.362s30.29-5.045 30.29-18.362Z" fill="#fff"/><path d="M93.733 56.982c0-18.281 19.264-30.63 48.181-30.63 28.916 0 48.099 12.349 48.099 30.63s-19.264 30.751-48.099 30.751c-28.836 0-48.181-12.47-48.181-30.75Zm78.632 0c0-12.066-13.328-18.24-30.451-18.24-17.124 0-30.492 6.174-30.492 18.24 0 12.067 13.287 18.362 30.492 18.362 17.204 0 30.451-6.295 30.451-18.362Z" fill="#fff"/><path d="M187.307 56.982c0-18.927 19.345-30.63 41.436-30.63 19.83 0 31.259 8.112 35.944 20.46V4.358h16.437v81.72h-16.437V67.274c-4.725 12.268-16.114 20.46-35.944 20.46-22.091 0-41.436-11.784-41.436-30.75Zm77.986 0c0-13.236-15.912-18.24-30.29-18.24-14.377 0-30.047 4.882-30.047 18.24 0 13.358 15.71 18.362 30.047 18.362s30.29-5.045 30.29-18.362Z" fill="#fff"/><path d="M280.963 56.982c0-18.281 19.264-30.63 48.18-30.63 28.917 0 48.1 12.349 48.1 30.63s-19.264 30.751-48.1 30.751c-28.835 0-48.18-12.47-48.18-30.75Zm78.631 0c0-12.066-13.327-18.24-30.451-18.24-17.123 0-30.491 6.174-30.491 18.24 0 12.067 13.287 18.362 30.491 18.362 17.205 0 30.451-6.295 30.451-18.362Z" fill="#fff"/><path d="m374.982 77.24 5.573-10.734c9.248 6.74 23.828 10.049 38.932 10.049 13.852 0 25.968-1.17 25.968-7.547 0-4.56-6.381-6.174-21.081-6.537l-14.176-.323c-22.899-.565-34.53-6.013-34.53-17.232 0-12.188 16.599-18.523 40.75-18.523 15.266 0 29.441 2.663 42.122 7.91l-5.25 10.734c-8.723-4.399-24.514-7.506-37.599-7.506-11.47 0-22.738 1.493-22.738 6.9 0 3.794 4.443 5.61 19.103 6.014l14.256.322c24.595.606 36.63 5.57 36.63 17.232 0 12.914-15.791 19.815-42.526 19.815-17.164 0-32.996-3.229-45.475-10.493l.041-.08Z" fill="#fff"/><path d="M476.593 61.825V41.243h-20.88V28.128h20.88V12.107h16.437v16.02h32.996v13.116H493.03V61.22c0 9.847 6.098 13.802 17.326 13.802 5.937 0 10.298-.484 15.67-1.735v12.389c-4.564.847-11.632 1.735-16.882 1.735-20.476 0-32.551-5.61-32.551-25.585Z" fill="#fff"/><path d="M524.41 58.072V28.128h16.437v25.787c0 13.842 10.056 21.389 25.847 21.389 15.791 0 25.847-7.547 25.847-21.389V28.128h16.397v57.95h-16.397V66.386c-4.765 12.187-15.346 21.348-32.672 21.348-20.395 0-35.459-10.613-35.459-29.702v.04Z" fill="#fff"/><path d="M608.817 56.982c0-18.927 19.345-30.63 41.436-30.63 19.83 0 31.259 8.112 35.944 20.46V4.358h16.437v81.72h-16.437V67.274c-4.726 12.268-16.114 20.46-35.944 20.46-22.091 0-41.436-11.784-41.436-30.75Zm77.985 0c0-13.236-15.912-18.24-30.289-18.24-14.378 0-30.047 4.882-30.047 18.24 0 13.358 15.71 18.362 30.047 18.362s30.289-5.045 30.289-18.362Zm16.155-47.579c0-5.61 4.321-9.403 10.258-9.403 5.937 0 10.137 3.793 10.137 9.403s-4.281 9.443-10.137 9.443c-5.856 0-10.258-3.713-10.258-9.443Zm2.059 18.725h16.397v57.95h-16.397v-57.95Z" fill="#fff"/><path d="M721.211 56.982c0-18.281 19.264-30.63 48.181-30.63 28.916 0 48.1 12.349 48.1 30.63s-19.265 30.751-48.1 30.751c-28.836 0-48.181-12.47-48.181-30.75Zm78.632 0c0-12.066-13.328-18.24-30.451-18.24-17.124 0-30.492 6.174-30.492 18.24 0 12.067 13.287 18.362 30.492 18.362 17.204 0 30.451-6.295 30.451-18.362Z" fill="#fff"/><path d="M812.524 77.967c0-5.77 4.322-9.685 10.258-9.685 5.937 0 10.218 3.874 10.218 9.685s-4.321 9.766-10.218 9.766c-5.896 0-10.258-3.955-10.258-9.766Z" fill="#fff"/></svg>