<svg width="833" height="88" viewBox="0 0 833 88" fill="none" xmlns="http://www.w3.org/2000/svg">
<path d="M0.0371094 56.9821C0.0371094 38.0553 19.382 26.3522 41.4732 26.3522C61.3028 26.3522 72.7321 34.4637 77.4168 46.8125V4.3584H93.854V86.0785H77.4168V67.2728C72.6917 79.5409 61.3028 87.7331 41.4732 87.7331C19.382 87.7331 0.0371094 75.9492 0.0371094 56.9821ZM78.0226 56.9821C78.0226 43.7455 62.1105 38.7414 47.7331 38.7414C33.3556 38.7414 17.6858 43.6244 17.6858 56.9821C17.6858 70.3398 33.396 75.3439 47.7331 75.3439C62.0701 75.3439 78.0226 70.2994 78.0226 56.9821Z" fill="white"/>
<path d="M93.7329 56.9821C93.7329 38.701 112.997 26.3522 141.914 26.3522C170.83 26.3522 190.013 38.701 190.013 56.9821C190.013 75.2632 170.749 87.7331 141.914 87.7331C113.078 87.7331 93.7329 75.2632 93.7329 56.9821ZM172.365 56.9821C172.365 44.9158 159.037 38.7414 141.914 38.7414C124.79 38.7414 111.422 44.9158 111.422 56.9821C111.422 69.0485 124.709 75.3439 141.914 75.3439C159.118 75.3439 172.365 69.0485 172.365 56.9821Z" fill="white"/>
<path d="M187.307 56.9821C187.307 38.0553 206.652 26.3522 228.743 26.3522C248.573 26.3522 260.002 34.4637 264.687 46.8125V4.3584H281.124V86.0785H264.687V67.2728C259.962 79.5409 248.573 87.7331 228.743 87.7331C206.652 87.7331 187.307 75.9492 187.307 56.9821ZM265.293 56.9821C265.293 43.7455 249.381 38.7414 235.003 38.7414C220.626 38.7414 204.956 43.6244 204.956 56.9821C204.956 70.3398 220.666 75.3439 235.003 75.3439C249.34 75.3439 265.293 70.2994 265.293 56.9821Z" fill="white"/>
<path d="M280.963 56.9821C280.963 38.701 300.227 26.3522 329.143 26.3522C358.06 26.3522 377.243 38.701 377.243 56.9821C377.243 75.2632 357.979 87.7331 329.143 87.7331C300.308 87.7331 280.963 75.2632 280.963 56.9821ZM359.594 56.9821C359.594 44.9158 346.267 38.7414 329.143 38.7414C312.02 38.7414 298.652 44.9158 298.652 56.9821C298.652 69.0485 311.939 75.3439 329.143 75.3439C346.348 75.3439 359.594 69.0485 359.594 56.9821Z" fill="white"/>
<path d="M374.982 77.2406L380.555 66.506C389.803 73.2454 404.383 76.5546 419.487 76.5546C433.339 76.5546 445.455 75.3843 445.455 69.0081C445.455 64.4479 439.074 62.8337 424.374 62.4705L410.198 62.1476C387.299 61.5827 375.668 56.1346 375.668 44.9158C375.668 32.7284 392.267 26.3926 416.418 26.3926C431.684 26.3926 445.859 29.056 458.54 34.3023L453.29 45.0369C444.567 40.6381 428.776 37.5307 415.691 37.5307C404.221 37.5307 392.953 39.0239 392.953 44.4315C392.953 48.225 397.396 50.041 412.056 50.4445L426.312 50.7674C450.907 51.3727 462.942 56.3364 462.942 67.9992C462.942 80.913 447.151 87.8138 420.416 87.8138C403.252 87.8138 387.42 84.5853 374.941 77.3213L374.982 77.2406Z" fill="white"/>
<path d="M476.593 61.8248V41.2434H455.713V28.1279H476.593V12.1067H493.03V28.1279H526.026V41.2434H493.03V61.2195C493.03 71.0662 499.128 75.0211 510.356 75.0211C516.293 75.0211 520.654 74.5368 526.026 73.2858V85.6749C521.462 86.5224 514.394 87.4102 509.144 87.4102C488.668 87.4102 476.593 81.8008 476.593 61.8248Z" fill="white"/>
<path d="M524.41 58.0717V28.1279H540.847V53.9151C540.847 67.7571 550.903 75.3036 566.694 75.3036C582.485 75.3036 592.541 67.7571 592.541 53.9151V28.1279H608.938V86.0785H592.541V66.385C587.776 78.5724 577.195 87.7331 559.869 87.7331C539.474 87.7331 524.41 77.1196 524.41 58.0314V58.0717Z" fill="white"/>
<path d="M608.817 56.9821C608.817 38.0553 628.162 26.3522 650.253 26.3522C670.083 26.3522 681.512 34.4637 686.197 46.8125V4.3584H702.634V86.0785H686.197V67.2728C681.471 79.5409 670.083 87.7331 650.253 87.7331C628.162 87.7331 608.817 75.9492 608.817 56.9821ZM686.802 56.9821C686.802 43.7455 670.89 38.7414 656.513 38.7414C642.135 38.7414 626.466 43.6244 626.466 56.9821C626.466 70.3398 642.176 75.3439 656.513 75.3439C670.85 75.3439 686.802 70.2994 686.802 56.9821Z" fill="white"/>
<path d="M702.957 9.40285C702.957 3.79343 707.278 0 713.215 0C719.152 0 723.352 3.79343 723.352 9.40285C723.352 15.0123 719.071 18.8461 713.215 18.8461C707.359 18.8461 702.957 15.1333 702.957 9.40285ZM705.016 28.1278H721.413V86.0785H705.016V28.1278Z" fill="white"/>
<path d="M721.211 56.9821C721.211 38.701 740.475 26.3522 769.392 26.3522C798.308 26.3522 817.492 38.701 817.492 56.9821C817.492 75.2632 798.227 87.7331 769.392 87.7331C740.556 87.7331 721.211 75.2632 721.211 56.9821ZM799.843 56.9821C799.843 44.9158 786.515 38.7414 769.392 38.7414C752.268 38.7414 738.9 44.9158 738.9 56.9821C738.9 69.0485 752.187 75.3439 769.392 75.3439C786.596 75.3439 799.843 69.0485 799.843 56.9821Z" fill="white"/>
<path d="M812.524 77.967C812.524 72.1961 816.846 68.2816 822.782 68.2816C828.719 68.2816 833 72.1558 833 77.967C833 83.7782 828.679 87.733 822.782 87.733C816.886 87.733 812.524 83.7782 812.524 77.967Z" fill="white"/>
</svg>
